<svg width="40" height="40" viewBox="0 0 40 40" fill="none" xmlns="http://www.w3.org/2000/svg">
<rect width="40" height="40" rx="8" fill="#EEEEEE"/>
<path fill-rule="evenodd" clip-rule="evenodd" d="M27.4306 17.054L26.9055 16.1963C26.4612 15.4705 25.4765 15.2202 24.7044 15.6366C24.3368 15.8404 23.8982 15.8982 23.4853 15.7973C23.0724 15.6964 22.7191 15.445 22.5033 15.0987C22.3645 14.8785 22.2899 14.6278 22.287 14.3718C22.2996 13.9614 22.135 13.5637 21.831 13.2693C21.5269 12.9749 21.1091 12.8089 20.6729 12.809H19.6148C19.1874 12.809 18.7777 12.9693 18.4762 13.2544C18.1747 13.5395 18.0064 13.926 18.0084 14.3282C17.9958 15.1587 17.2768 15.8257 16.3943 15.8256C16.1223 15.8229 15.8559 15.7527 15.622 15.6221C14.8498 15.2056 13.8652 15.456 13.4209 16.1817L12.8571 17.054C12.4134 17.7789 12.6758 18.705 13.4441 19.1256C13.9435 19.397 14.2511 19.8985 14.2511 20.4413C14.2511 20.984 13.9435 21.4856 13.4441 21.7569C12.6767 22.1747 12.414 23.0986 12.8571 23.8213L13.39 24.6863C13.5982 25.0398 13.9475 25.3007 14.3605 25.4112C14.7736 25.5217 15.2165 25.4727 15.5911 25.275C15.9594 25.0728 16.3982 25.0174 16.8101 25.1211C17.222 25.2249 17.5727 25.4791 17.7845 25.8275C17.9233 26.0476 17.9979 26.2984 18.0007 26.5543C18.0007 27.3934 18.7234 28.0735 19.6148 28.0735H20.6729C21.5614 28.0735 22.2828 27.3978 22.287 26.5616C22.285 26.1581 22.4544 25.7706 22.7575 25.4852C23.0607 25.1999 23.4724 25.0405 23.9012 25.0424C24.1725 25.0493 24.4378 25.1192 24.6735 25.246C25.4436 25.6636 26.4276 25.4167 26.8746 24.6935L27.4306 23.8213C27.6459 23.4736 27.7049 23.0594 27.5948 22.6706C27.4846 22.2818 27.2143 21.9503 26.8437 21.7497C26.4731 21.549 26.2027 21.2175 26.0926 20.8287C25.9824 20.4399 26.0415 20.0258 26.2567 19.678C26.3967 19.4481 26.5993 19.2574 26.8437 19.1256C27.6074 18.7052 27.8692 17.7845 27.4306 17.0613V17.054Z" stroke="#6D6D6D" stroke-width="1.5" stroke-linecap="round" stroke-linejoin="round"/>
<path d="M20.1477 22.5345C21.3761 22.5345 22.3718 21.5973 22.3718 20.4412C22.3718 19.2851 21.3761 18.3479 20.1477 18.3479C18.9194 18.3479 17.9236 19.2851 17.9236 20.4412C17.9236 21.5973 18.9194 22.5345 20.1477 22.5345Z" stroke="#6D6D6D" stroke-width="1.5" stroke-linecap="round" stroke-linejoin="round"/>
</svg>
