<svg width="64" height="64" fill="none" xmlns="http://www.w3.org/2000/svg"><clipPath id="a"><circle r="32" cx="32" cy="32"/></clipPath><path fill-rule="evenodd" clip-rule="evenodd" d="M22.187 0h19.626C59.733 0 64 4.267 64 22.187v19.626C64 59.733 59.733 64 41.813 64H22.187C4.267 64 0 59.733 0 41.813V22.187C0 4.267 4.267 0 22.187 0Z" fill="#2787F5" clip-path="url(#a)"/><path fill-rule="evenodd" clip-rule="evenodd" d="M52.411 22.049c.297-.99 0-1.716-1.41-1.716h-4.668c-1.186 0-1.733.628-2.03 1.32 0 0-2.373 5.785-5.735 9.542-1.088 1.088-1.582 1.434-2.175 1.434-.297 0-.726-.346-.726-1.335v-9.245c0-1.187-.345-1.716-1.334-1.716H27c-.741 0-1.187.551-1.187 1.073 0 1.125 1.68 1.384 1.854 4.549v6.872c0 1.506-.272 1.78-.866 1.78-1.582 0-5.43-5.81-7.712-12.46-.448-1.292-.896-1.814-2.089-1.814h-4.667c-1.333 0-1.6.628-1.6 1.32 0 1.236 1.582 7.367 7.367 15.475 3.856 5.537 9.29 8.539 14.233 8.539 2.967 0 3.334-.667 3.334-1.815v-4.185c0-1.334.28-1.6 1.22-1.6.692 0 1.879.346 4.648 3.016 3.164 3.164 3.685 4.584 5.465 4.584h4.667c1.333 0 2-.667 1.615-1.983-.42-1.31-1.931-3.213-3.936-5.468-1.088-1.286-2.72-2.67-3.214-3.362-.692-.89-.494-1.286 0-2.077 0 0 5.686-8.01 6.28-10.728Z" fill="#fff"/></svg>