<svg width="64" height="64" viewBox="0 0 64 64" fill="none" xmlns="http://www.w3.org/2000/svg">
<path d="M41.6301 24.6218H49C50.1046 24.6218 51 23.7264 51 22.6218V16C51 14.8954 50.1046 14 49 14L15 14C13.8954 14 13 14.8954 13 16V19.2581V22.6218C13 23.7264 13.8954 24.6218 15 24.6218H22.3699M41.6301 24.6218V19.2527M41.6301 24.6218V28.6834L41.6301 40.3798M22.3699 19.2527H32H41.6301M22.3699 19.2527L22.3699 24.6218M22.3699 19.2527H17M41.6301 40.3798V48C41.6301 49.1046 40.7347 50 39.6301 50H24.3699C23.2653 50 22.3699 49.1046 22.3699 48L22.3699 40.3798M41.6301 40.3798H32H22.3699M22.3699 40.3798V28.6834V24.6218M27.0548 43.7224V46.6574M41.6301 19.2527H47M30.6986 23.6202H35.3836C35.9585 23.6202 36.4247 24.0478 36.4247 24.5752V28.398C36.4247 28.9255 35.9585 29.3531 35.3836 29.3531H30.6986M30.6986 23.6202V29.3531M30.6986 23.6202H27.5753M30.6986 29.3531V32.9317M30.6986 29.3531H27.5753M30.6986 35.558V32.9317M30.6986 32.9317H33.8219M30.6986 32.9317H27.5753" stroke="#BD514A" stroke-width="1.5" stroke-linecap="round"/>
<rect x="0.75" y="0.75" width="62.5" height="62.5" rx="31.25" stroke="#BD514A" stroke-width="1.5"/>
</svg>
