<svg width="64" height="64" viewBox="0 0 64 64" fill="none" xmlns="http://www.w3.org/2000/svg">
<path d="M40.5127 10.2795H31.8784C31.6785 10.2795 31.4978 10.3986 31.4189 10.5823L22.3744 31.657C22.2328 31.987 22.4748 32.3542 22.8339 32.3542H29.6606C29.9995 32.3542 30.2402 32.6841 30.1368 33.0068L24.6269 50.2034C24.4491 50.7582 25.2027 51.1172 25.5215 50.6297L41.4188 26.3229C41.6363 25.9904 41.3977 25.5493 41.0004 25.5493H34.4648C34.0927 25.5493 33.851 25.1573 34.018 24.8248L40.9595 11.004C41.1265 10.6714 40.8847 10.2795 40.5127 10.2795Z" stroke="#68A357" stroke-width="1.5"/>
<rect x="0.75" y="0.75" width="62.5" height="62.5" rx="31.25" stroke="#68A357" stroke-width="1.5"/>
</svg>
