<svg width="64" height="64" viewBox="0 0 64 64" fill="none" xmlns="http://www.w3.org/2000/svg">
<path d="M14.814 44.1395V19C14.814 17.3431 16.1571 16 17.814 16H46.6047C48.2615 16 49.6047 17.3431 49.6047 19V44.1395M14.814 44.1395H13C12.4477 44.1395 12 44.5872 12 45.1395V46C12 47.6569 13.3431 49 15 49H49.4186C51.0755 49 52.4186 47.6569 52.4186 46V45.1395C52.4186 44.5872 51.9709 44.1395 51.4186 44.1395H49.6047M14.814 44.1395H22.7442C23.168 44.1395 23.5116 44.4831 23.5116 44.907V44.907C23.5116 45.3308 23.8552 45.6744 24.2791 45.6744H40.1395C40.5634 45.6744 40.907 45.3308 40.907 44.907V44.907C40.907 44.4831 41.2506 44.1395 41.6744 44.1395H49.6047M45.7674 20.8372V39.3023C45.7674 39.8546 45.3197 40.3023 44.7674 40.3023H19.6512C19.0989 40.3023 18.6512 39.8546 18.6512 39.3023V20.8372C18.6512 20.2849 19.0989 19.8372 19.6512 19.8372H44.7674C45.3197 19.8372 45.7674 20.2849 45.7674 20.8372Z" stroke="#68A357" stroke-width="1.5"/>
<rect x="0.75" y="0.75" width="62.5" height="62.5" rx="31.25" stroke="#68A357" stroke-width="1.5"/>
</svg>
