<svg width="64" height="64" viewBox="0 0 64 64" fill="none" xmlns="http://www.w3.org/2000/svg">
<path d="M20.9541 36.9698C20.5399 36.9698 20.2041 37.3056 20.2041 37.7198C20.2041 38.134 20.5399 38.4698 20.9541 38.4698V36.9698ZM43.0459 38.4698C43.4601 38.4698 43.7959 38.134 43.7959 37.7198C43.7959 37.3056 43.4601 36.9698 43.0459 36.9698V38.4698ZM35.5155 42.7532C35.9297 42.7532 36.2655 42.4174 36.2655 42.0032C36.2655 41.589 35.9297 41.2532 35.5155 41.2532V42.7532ZM28.4845 41.2532C28.0703 41.2532 27.7345 41.589 27.7345 42.0032C27.7345 42.4174 28.0703 42.7532 28.4845 42.7532V41.2532ZM35.5155 46.1217C35.9297 46.1217 36.2655 45.7859 36.2655 45.3717C36.2655 44.9574 35.9297 44.6217 35.5155 44.6217V46.1217ZM28.4845 44.6217C28.0703 44.6217 27.7345 44.9574 27.7345 45.3717C27.7345 45.7859 28.0703 46.1217 28.4845 46.1217V44.6217ZM12.75 41.6146V27.1141H11.25V41.6146H12.75ZM51.25 27.1141V41.6146H52.75V27.1141H51.25ZM24.3009 19.0321H20.6937V20.5321H24.3009V19.0321ZM14 25.8641H18.6937V24.3641H14V25.8641ZM17.9437 21.7821V25.1141H19.4437V21.7821H17.9437ZM45.3063 25.8641H50V24.3641H45.3063V25.8641ZM44.5563 21.7821V25.1141H46.0563V21.7821H44.5563ZM18.6937 25.8641H24.3009V24.3641H18.6937V25.8641ZM24.3009 25.8641H32V24.3641H24.3009V25.8641ZM25.0509 25.1141V16.7295H23.5509V25.1141H25.0509ZM32 25.8641H39.6991V24.3641H32V25.8641ZM39.6991 25.8641H45.3063V24.3641H39.6991V25.8641ZM40.4491 25.1141V16.7295H38.9491V25.1141H40.4491ZM37.6991 13.9795H26.3009V15.4795H37.6991V13.9795ZM43.3063 19.0321H39.6991V20.5321H43.3063V19.0321ZM39.6991 38.4698H43.0459V36.9698H39.6991V38.4698ZM26.3009 50.0204H37.6991V48.5204H26.3009V50.0204ZM25.0509 47.2704V43.6146H23.5509V47.2704H25.0509ZM25.0509 43.6146V37.7198H23.5509V43.6146H25.0509ZM24.3009 42.8646H14V44.3646H24.3009V42.8646ZM40.4491 47.2704V43.6146H38.9491V47.2704H40.4491ZM40.4491 43.6146V37.7198H38.9491V43.6146H40.4491ZM50 42.8646H39.6991V44.3646H50V42.8646ZM20.9541 38.4698H24.3009V36.9698H20.9541V38.4698ZM24.3009 38.4698H39.6991V36.9698H24.3009V38.4698ZM28.4845 42.7532H35.5155V41.2532H28.4845V42.7532ZM28.4845 46.1217H35.5155V44.6217H28.4845V46.1217ZM37.6991 50.0204C39.2178 50.0204 40.4491 48.7892 40.4491 47.2704H38.9491C38.9491 47.9608 38.3894 48.5204 37.6991 48.5204V50.0204ZM46.0563 21.7821C46.0563 20.2633 44.8251 19.0321 43.3063 19.0321V20.5321C43.9967 20.5321 44.5563 21.0918 44.5563 21.7821H46.0563ZM40.4491 16.7295C40.4491 15.2107 39.2178 13.9795 37.6991 13.9795V15.4795C38.3894 15.4795 38.9491 16.0391 38.9491 16.7295H40.4491ZM51.25 41.6146C51.25 42.3049 50.6904 42.8646 50 42.8646V44.3646C51.5188 44.3646 52.75 43.1333 52.75 41.6146H51.25ZM26.3009 48.5204C25.6106 48.5204 25.0509 47.9608 25.0509 47.2704H23.5509C23.5509 48.7892 24.7822 50.0204 26.3009 50.0204V48.5204ZM20.6937 19.0321C19.1749 19.0321 17.9437 20.2633 17.9437 21.7821H19.4437C19.4437 21.0918 20.0033 20.5321 20.6937 20.5321V19.0321ZM52.75 27.1141C52.75 25.5953 51.5188 24.3641 50 24.3641V25.8641C50.6904 25.8641 51.25 26.4238 51.25 27.1141H52.75ZM25.0509 16.7295C25.0509 16.0391 25.6106 15.4795 26.3009 15.4795V13.9795C24.7822 13.9795 23.5509 15.2107 23.5509 16.7295H25.0509ZM12.75 27.1141C12.75 26.4238 13.3096 25.8641 14 25.8641V24.3641C12.4812 24.3641 11.25 25.5953 11.25 27.1141H12.75ZM11.25 41.6146C11.25 43.1333 12.4812 44.3646 14 44.3646V42.8646C13.3096 42.8646 12.75 42.3049 12.75 41.6146H11.25Z" fill="#BD514A"/>
<ellipse cx="44.5" cy="28.7556" rx="0.961538" ry="0.961538" fill="#BD514A"/>
<ellipse cx="48.3462" cy="28.7556" rx="0.961538" ry="0.961538" fill="#BD514A"/>
<rect x="0.75" y="0.75" width="62.5" height="62.5" rx="31.25" stroke="#BD514A" stroke-width="1.5"/>
</svg>

