<svg width="40" height="40" viewBox="0 0 40 40" fill="none" xmlns="http://www.w3.org/2000/svg">
<rect width="40" height="40" rx="6" fill="#EEEEEE"/>
<g clip-path="url(#clip0_1407_259)">
<path d="M21.225 20L26.7375 14.4875C27.0875 14.1375 27.0875 13.6125 26.7375 13.2625C26.3875 12.9125 25.8625 12.9125 25.5125 13.2625L20 18.775L14.4875 13.2625C14.1375 12.9125 13.6125 12.9125 13.2625 13.2625C12.9125 13.6125 12.9125 14.1375 13.2625 14.4875L18.775 20L13.2625 25.5125C13.0875 25.6875 13 25.8625 13 26.125C13 26.65 13.35 27 13.875 27C14.1375 27 14.3125 26.9125 14.4875 26.7375L20 21.225L25.5125 26.7375C25.6875 26.9125 25.8625 27 26.125 27C26.3875 27 26.5625 26.9125 26.7375 26.7375C27.0875 26.3875 27.0875 25.8625 26.7375 25.5125L21.225 20Z" fill="#6D6D6D"/>
</g>
<defs>
<clipPath id="clip0_1407_259">
<rect width="14" height="14" fill="white" transform="translate(13 13)"/>
</clipPath>
</defs>
</svg>
