<svg width="64" height="64" viewBox="0 0 64 64" fill="none" xmlns="http://www.w3.org/2000/svg">
<path d="M25.3567 49.91C25.3618 49.9611 25.4049 50 25.4562 50H38.5438C38.5951 50 38.6382 49.9611 38.6433 49.91L39.3924 42.4579H24.6076L25.3567 49.91Z" fill="#BD514A"/>
<path d="M41.667 19.8316H22.333M41.667 19.8316H43.8416C43.8969 19.8316 43.9416 19.7869 43.9416 19.7316V17.0585C43.9416 17.0032 43.8969 16.9585 43.8416 16.9585H41.667M41.667 19.8316L40.9088 27.3737M22.333 19.8316L23.0912 27.3737M22.333 19.8316H20.1584C20.1031 19.8316 20.0584 19.7869 20.0584 19.7316V17.0585C20.0584 17.0032 20.1031 16.9585 20.1584 16.9585H22.333M23.0912 27.3737H40.9088M23.0912 27.3737L24.6076 42.4579M40.9088 27.3737L39.3924 42.4579M39.3924 42.4579L38.6433 49.91C38.6382 49.9611 38.5951 50 38.5438 50H25.4562C25.4049 50 25.3618 49.9611 25.3567 49.91L24.6076 42.4579M39.3924 42.4579H24.6076M22.333 16.9585H41.667M22.333 16.9585L25.3366 14.0284C25.3553 14.0102 25.3804 14 25.4065 14H37.8416C37.8639 14 37.8856 14.0074 37.9032 14.0212L41.667 16.9585" stroke="#BD514A" stroke-width="1.5"/>
<rect x="0.75" y="0.75" width="62.5" height="62.5" rx="31.25" stroke="#BD514A" stroke-width="1.5"/>
</svg>

