<svg width="64" height="64" viewBox="0 0 64 64" fill="none" xmlns="http://www.w3.org/2000/svg">
<path d="M28.373 32.8317L18.2202 46.673C18.186 46.7197 18.1558 46.769 18.1297 46.8206L16.8837 49.2814C16.6441 49.7548 16.7895 50.3329 17.225 50.6379L18.77 51.7197C19.2055 52.0246 19.7986 51.9636 20.1614 51.5764L22.0477 49.564C22.0872 49.5218 22.1232 49.4765 22.1554 49.4285L30.8069 36.4753M28.373 32.8317L26.5386 30.0854C26.3631 29.8227 26.0614 29.679 25.7461 29.6617C23.4888 29.5377 20.7662 27.792 18.7786 24.9535C16.0251 21.021 15.725 16.4804 18.1083 14.8116C20.4916 13.1428 24.6558 14.9778 27.4093 18.9102C29.3968 21.7488 30.1061 24.9043 29.4505 27.0678C29.3589 27.3701 29.3908 27.7027 29.5776 27.9574L30.763 29.5735M28.373 32.8317L30.8069 36.4753M30.763 29.5735L32.2295 27.5743C32.4165 27.3194 32.4483 26.9863 32.356 26.6839C31.6865 24.4923 32.4017 21.2944 34.4149 18.4193L38.6438 12.3797C38.9258 11.9769 39.481 11.8791 39.8837 12.1611L40.2484 12.4164C40.6512 12.6984 40.749 13.2536 40.467 13.6564L35.6785 20.4951C35.3965 20.8978 35.4944 21.453 35.8971 21.735L36.0795 21.8627C36.4822 22.1447 37.0374 22.0468 37.3194 21.644L42.1079 14.8053C42.3899 14.4025 42.9451 14.3047 43.3479 14.5867L43.7125 14.842C44.1153 15.124 44.2132 15.6792 43.9311 16.082L39.1426 22.9207C38.8606 23.3234 38.9585 23.8786 39.3613 24.1606L39.5436 24.2883C39.9464 24.5703 40.5015 24.4724 40.7835 24.0696L45.572 17.2309C45.8541 16.8281 46.4092 16.7303 46.812 17.0123L47.1766 17.2676C47.5794 17.5496 47.6773 18.1048 47.3953 18.5076L43.1663 24.5471C41.1531 27.4223 38.3927 29.1881 36.1043 29.3085C35.7885 29.3251 35.4865 29.469 35.3109 29.7319L33.1987 32.8944M30.763 29.5735L33.1987 32.8944M33.1987 32.8944L43.4171 46.8263C43.4508 46.8724 43.4807 46.9211 43.5065 46.9721L44.7383 49.4033C44.9753 49.871 44.8323 50.4418 44.4028 50.7426L42.8791 51.8094C42.4496 52.1102 41.8643 52.0493 41.5059 51.6667L39.6426 49.6776C39.6035 49.6359 39.568 49.5912 39.5362 49.5437L30.8069 36.4753" stroke="#F3953D" stroke-width="1.5"/>
<rect x="0.75" y="0.75" width="62.5" height="62.5" rx="31.25" stroke="#F3953D" stroke-width="1.5"/>
</svg>

