<svg width="64" height="64" viewBox="0 0 64 64" fill="none" xmlns="http://www.w3.org/2000/svg">
<path d="M18.7234 17.3721L17.9437 14.4623C17.8514 14.1176 18.0559 13.7633 18.4005 13.671L24.2202 12.1116C24.5649 12.0193 24.9191 12.2238 25.0115 12.5685L29.7607 30.2927M18.7234 17.3721L19.6703 20.906M18.7234 17.3721L20.8437 16.8039M19.6703 20.906L20.6172 24.4398M19.6703 20.906L23.2042 19.9591M20.6172 24.4398L21.5641 27.9737M20.6172 24.4398L22.7375 23.8717M21.5641 27.9737L25.098 27.0268M21.5641 27.9737L22.1855 30.2927M35.3999 19.3171V12.6461C35.3999 12.2893 35.1106 12 34.7538 12L31.1679 12C30.8111 12 30.5218 12.2892 30.5218 12.6461L30.5218 19.3171M35.3999 19.3171H32.9609M35.3999 19.3171L35.3999 30.2927M30.5218 19.3171H32.9609M30.5218 19.3171V30.2927M32.9609 19.3171V15.4146M32.9609 19.3171V23.2195M44.3297 20.3303L46.0563 13.8866C46.1486 13.5419 45.9441 13.1877 45.5995 13.0953L42.1357 12.1672C41.7911 12.0749 41.4368 12.2794 41.3445 12.624L39.6179 19.0678M44.3297 20.3303L39.6179 19.0678M44.3297 20.3303L41.6603 30.2927M39.6179 19.0678L36.6102 30.2927M22.1855 30.2927H19.5257C19.1444 30.2927 18.8461 30.6212 18.8826 31.0007L20.8488 51.4159C20.8807 51.7472 21.1591 52 21.4919 52H41.7275C42.0603 52 42.3387 51.7472 42.3706 51.4159L44.3368 31.0007C44.3733 30.6212 44.075 30.2927 43.6937 30.2927H41.6603M22.1855 30.2927H29.7607M29.7607 30.2927H30.5218M30.5218 30.2927H35.3999M35.3999 30.2927H36.6102M36.6102 30.2927H41.6603" stroke="#BD4AA4" stroke-width="1.5" stroke-linecap="round"/>
<rect x="0.75" y="0.75" width="62.5" height="62.5" rx="31.25" stroke="#BD4AA4" stroke-width="1.5"/>
</svg>
