<svg width="64" height="64" viewBox="0 0 64 64" fill="none" xmlns="http://www.w3.org/2000/svg">
<path d="M28.4286 36.9057H25V25.0599C25 22.8723 26.9288 21.5597 29.0714 21.5598H35.9286C38.0716 21.5598 40 22.8723 40 25.0599V36.9057H36.5714M28.4286 36.9057V27.685M28.4286 36.9057V52H32.5M32.5 52H36.5714V36.9057M32.5 52V36.9057M36.5714 36.9057V27.685" stroke="#347FC4" stroke-width="1.5"/>
<path d="M35.7731 15.9377C35.7731 17.6977 34.3453 19.1253 32.5831 19.1253C30.8209 19.1253 29.3931 17.6977 29.3931 15.9377C29.3931 14.1776 30.8209 12.75 32.5831 12.75C34.3453 12.75 35.7731 14.1776 35.7731 15.9377Z" stroke="#347FC4" stroke-width="1.5"/>
<rect x="0.75" y="0.75" width="62.5" height="62.5" rx="31.25" stroke="#347FC4" stroke-width="1.5"/>
</svg>
