<svg width="64" height="64" viewBox="0 0 64 64" fill="none" xmlns="http://www.w3.org/2000/svg">
<path d="M19.216 31.2982V50.7043C19.216 51.4199 18.6359 52 17.9203 52V52C17.2048 52 16.6247 51.4199 16.6247 50.7043V13.2957C16.6247 12.5801 17.2048 12 17.9203 12V12C18.6359 12 19.216 12.5801 19.216 13.2957V14.6316M19.216 31.2982C24.3547 27.6459 27.3424 27.8525 33.2957 28.0526C40.9136 28.9484 42.5886 27.2161 46.4407 23.8587C46.7791 23.5637 46.5925 22.9995 46.1449 22.965C40.8155 22.5543 37.6967 21.8417 33.2957 18.8421C28.6464 15.1097 25.5041 14.3362 19.216 14.6316M19.216 31.2982V14.6316" stroke="#BD4AA4" stroke-width="1.5"/>
<rect x="0.75" y="0.75" width="62.5" height="62.5" rx="31.25" stroke="#BD4AA4" stroke-width="1.5"/>
</svg>

