<svg width="52" height="52" viewBox="0 0 52 52" fill="none" xmlns="http://www.w3.org/2000/svg">
<path d="M1 6C1 3.23858 3.23858 1 6 1H46C48.7614 1 51 3.23858 51 6V46C51 48.7614 48.7614 51 46 51H6C3.23858 51 1 48.7614 1 46V6Z" fill="#00AACF"/>
<path d="M17.4471 15C16.9398 15.0025 16.454 15.2037 16.0952 15.56C15.7365 15.9164 15.5338 16.3989 15.5312 16.9028V19.8421H8.82812C7.82631 19.8421 7 20.6628 7 21.6579V36.1842C7 37.1805 7.82631 38 8.82812 38H33.2031C34.2049 38 35.0312 37.1805 35.0312 36.1842V34.3684H44.0841C45.1347 34.3684 46 33.5113 46 32.4678V16.9042C45.9978 16.4 45.7952 15.9171 45.4365 15.5605C45.0777 15.2039 44.5917 15.0025 44.0841 15H17.4471ZM17.4471 16.2105H44.0841C44.1762 16.2085 44.2678 16.225 44.3532 16.2591C44.4387 16.2932 44.5164 16.3441 44.5815 16.4088C44.6466 16.4735 44.6979 16.5506 44.7323 16.6355C44.7666 16.7204 44.7832 16.8114 44.7812 16.9028V17.4211H16.75V16.9028C16.748 16.8114 16.7647 16.7204 16.799 16.6355C16.8333 16.5506 16.8846 16.4735 16.9497 16.4088C17.0149 16.3441 17.0925 16.2932 17.178 16.2591C17.2635 16.225 17.355 16.2085 17.4471 16.2105ZM16.75 18.6316H44.7812V21.0526H34.9167C34.6632 20.3517 33.9904 19.8421 33.2031 19.8421H16.75V18.6316ZM8.82812 21.0526H33.2031C33.5517 21.0526 33.8125 21.3129 33.8125 21.6579V36.1842C33.8125 36.5304 33.5517 36.7895 33.2031 36.7895H8.82812C8.74755 36.7915 8.66741 36.7771 8.59257 36.7474C8.51773 36.7176 8.44975 36.6732 8.39276 36.6166C8.33577 36.56 8.29096 36.4925 8.26105 36.4181C8.23113 36.3438 8.21674 36.2642 8.21875 36.1842V21.6579C8.21875 21.3129 8.47956 21.0526 8.82812 21.0526ZM35.0312 22.2632H44.7812V32.4678C44.7829 32.5591 44.766 32.6498 44.7315 32.7344C44.697 32.819 44.6457 32.8959 44.5806 32.9603C44.5155 33.0248 44.438 33.0755 44.3527 33.1094C44.2673 33.1434 44.176 33.1599 44.0841 33.1579H35.0312V30.652C35.8868 30.8457 36.785 30.6641 37.4943 30.1533C37.9855 30.514 38.5827 30.7368 39.2347 30.7368C40.8849 30.7368 42.2219 29.3665 42.2219 27.7105C42.2219 26.0545 40.8849 24.6842 39.2359 24.6842C38.5827 24.6842 37.9855 24.902 37.4943 25.2639C37.1431 25.0115 36.7418 24.8365 36.3171 24.7503C35.8923 24.6641 35.454 24.6687 35.0312 24.764V22.2632ZM21.0156 24.6866C18.3307 24.6866 16.1406 26.8619 16.1406 29.5287C16.1406 32.1955 18.3307 34.3708 21.0156 34.3708C23.7005 34.3708 25.8906 32.1955 25.8906 29.5287C25.8906 26.8619 23.7005 24.6866 21.0156 24.6866ZM12.4844 25.8947V27.1053H14.9219V25.8947H12.4844ZM27.1094 25.8947V27.1053H29.5469V25.8947H27.1094ZM39.2359 25.8947C40.2097 25.8947 41.0031 26.6937 41.0031 27.7105C41.0031 28.7286 40.2097 29.5263 39.2359 29.5263C38.8898 29.5263 38.5693 29.4197 38.2975 29.2454L37.9977 28.9089C37.7038 28.5779 37.5413 28.1519 37.5407 27.7105C37.5407 27.2711 37.704 26.8473 37.9977 26.5168L38.3085 26.1659C38.579 25.9964 38.8935 25.8947 39.2347 25.8947H39.2359ZM21.0156 25.8947C23.0424 25.8947 24.6719 27.5132 24.6719 29.5263C24.6719 31.5394 23.0424 33.1579 21.0156 33.1579C18.9888 33.1579 17.3594 31.5394 17.3594 29.5263C17.3594 27.5132 18.9888 25.8947 21.0156 25.8947ZM35.6833 25.8947H35.6906C36.044 25.8947 36.3451 26.0641 36.6266 26.2662C36.3826 26.7079 36.2532 27.2031 36.25 27.7068C36.25 28.2383 36.3987 28.7322 36.64 29.1692C36.1586 29.4839 35.5797 29.5928 35.0312 29.3774V26.0279C35.2433 25.9431 35.4639 25.8947 35.6833 25.8947ZM10.0469 28.9211V30.1316H13.7031V28.9211H10.0469ZM28.3281 28.9211V30.1316H31.9844V28.9211H28.3281ZM12.4844 31.9474V33.1579H14.9219V31.9474H12.4844ZM27.1094 31.9474V33.1579H29.5469V31.9474H27.1094Z" fill="white"/>
<path d="M1 6C1 3.23858 3.23858 1 6 1H46C48.7614 1 51 3.23858 51 6V46C51 48.7614 48.7614 51 46 51H6C3.23858 51 1 48.7614 1 46V6Z" stroke="white" stroke-width="0.5"/>
<path d="M17.4471 15C16.9398 15.0025 16.454 15.2037 16.0952 15.56C15.7365 15.9164 15.5338 16.3989 15.5312 16.9028V19.8421H8.82812C7.82631 19.8421 7 20.6628 7 21.6579V36.1842C7 37.1805 7.82631 38 8.82812 38H33.2031C34.2049 38 35.0312 37.1805 35.0312 36.1842V34.3684H44.0841C45.1347 34.3684 46 33.5113 46 32.4678V16.9042C45.9978 16.4 45.7952 15.9171 45.4365 15.5605C45.0777 15.2039 44.5917 15.0025 44.0841 15H17.4471ZM17.4471 16.2105H44.0841C44.1762 16.2085 44.2678 16.225 44.3532 16.2591C44.4387 16.2932 44.5164 16.3441 44.5815 16.4088C44.6466 16.4735 44.6979 16.5506 44.7323 16.6355C44.7666 16.7204 44.7832 16.8114 44.7812 16.9028V17.4211H16.75V16.9028C16.748 16.8114 16.7647 16.7204 16.799 16.6355C16.8333 16.5506 16.8846 16.4735 16.9497 16.4088C17.0149 16.3441 17.0925 16.2932 17.178 16.2591C17.2635 16.225 17.355 16.2085 17.4471 16.2105ZM16.75 18.6316H44.7812V21.0526H34.9167C34.6632 20.3517 33.9904 19.8421 33.2031 19.8421H16.75V18.6316ZM8.82812 21.0526H33.2031C33.5517 21.0526 33.8125 21.3129 33.8125 21.6579V36.1842C33.8125 36.5304 33.5517 36.7895 33.2031 36.7895H8.82812C8.74755 36.7915 8.66741 36.7771 8.59257 36.7474C8.51773 36.7176 8.44975 36.6732 8.39276 36.6166C8.33577 36.56 8.29096 36.4925 8.26105 36.4181C8.23113 36.3438 8.21674 36.2642 8.21875 36.1842V21.6579C8.21875 21.3129 8.47956 21.0526 8.82812 21.0526ZM35.0312 22.2632H44.7812V32.4678C44.7829 32.5591 44.766 32.6498 44.7315 32.7344C44.697 32.819 44.6457 32.8959 44.5806 32.9603C44.5155 33.0248 44.438 33.0755 44.3527 33.1094C44.2673 33.1434 44.176 33.1599 44.0841 33.1579H35.0312V30.652C35.8868 30.8457 36.785 30.6641 37.4943 30.1533C37.9855 30.514 38.5827 30.7368 39.2347 30.7368C40.8849 30.7368 42.2219 29.3665 42.2219 27.7105C42.2219 26.0545 40.8849 24.6842 39.2359 24.6842C38.5827 24.6842 37.9855 24.902 37.4943 25.2639C37.1431 25.0115 36.7418 24.8365 36.3171 24.7503C35.8923 24.6641 35.454 24.6687 35.0312 24.764V22.2632ZM21.0156 24.6866C18.3307 24.6866 16.1406 26.8619 16.1406 29.5287C16.1406 32.1955 18.3307 34.3708 21.0156 34.3708C23.7005 34.3708 25.8906 32.1955 25.8906 29.5287C25.8906 26.8619 23.7005 24.6866 21.0156 24.6866ZM12.4844 25.8947V27.1053H14.9219V25.8947H12.4844ZM27.1094 25.8947V27.1053H29.5469V25.8947H27.1094ZM39.2359 25.8947C40.2097 25.8947 41.0031 26.6937 41.0031 27.7105C41.0031 28.7286 40.2097 29.5263 39.2359 29.5263C38.8898 29.5263 38.5693 29.4197 38.2975 29.2454L37.9977 28.9089C37.7038 28.5779 37.5413 28.1519 37.5407 27.7105C37.5407 27.2711 37.704 26.8473 37.9977 26.5168L38.3085 26.1659C38.579 25.9964 38.8935 25.8947 39.2347 25.8947H39.2359ZM21.0156 25.8947C23.0424 25.8947 24.6719 27.5132 24.6719 29.5263C24.6719 31.5394 23.0424 33.1579 21.0156 33.1579C18.9888 33.1579 17.3594 31.5394 17.3594 29.5263C17.3594 27.5132 18.9888 25.8947 21.0156 25.8947ZM35.6833 25.8947H35.6906C36.044 25.8947 36.3451 26.0641 36.6266 26.2662C36.3826 26.7079 36.2532 27.2031 36.25 27.7068C36.25 28.2383 36.3987 28.7322 36.64 29.1692C36.1586 29.4839 35.5797 29.5928 35.0312 29.3774V26.0279C35.2433 25.9431 35.4639 25.8947 35.6833 25.8947ZM10.0469 28.9211V30.1316H13.7031V28.9211H10.0469ZM28.3281 28.9211V30.1316H31.9844V28.9211H28.3281ZM12.4844 31.9474V33.1579H14.9219V31.9474H12.4844ZM27.1094 31.9474V33.1579H29.5469V31.9474H27.1094Z" stroke="white" stroke-width="0.5"/>
</svg>
