<svg width="51" height="51" viewBox="0 0 51 51" fill="none" xmlns="http://www.w3.org/2000/svg">
<path d="M6.10082 0.505465C2.51547 0.505465 0.5 2.35584 0.5 6.13678V45.1118C0.5 48.6483 2.31198 50.5 5.89447 50.5H45.1026C48.6852 50.5 50.5 48.7405 50.5 45.1118V6.13678C50.5 2.44815 48.6852 0.505465 44.9901 0.505465C44.9901 0.505465 6.08842 0.493169 6.10082 0.505465Z" fill="#6D7D09"/>
<path d="M6.6766 31.0121C4.96879 32.018 4.66061 34.1595 5.03098 35.4588C5.39026 36.7188 6.65665 38.2209 8.93554 38.2209H41.2875C43.8391 38.2209 45.0026 36.7608 45.3617 35.5008C45.7321 34.2015 45.7321 32.1896 43.7567 30.9743L26.6266 20.8814V19.163C26.6266 17.214 24.4969 16.368 24.4969 16.368C23.1183 15.6974 23.2417 14.2516 23.2417 14.2516C23.2417 12.5542 24.7645 12.0093 25.4432 12.0093C26.5832 12.0093 27.7013 12.6405 27.8191 14.0839C28.0045 16.3471 30.5732 15.7727 30.5732 13.9544C30.5732 12.2361 29.0032 9.22225 25.4227 9.22225C21.5523 9.22225 20.4408 12.9999 20.4408 14.1944C20.4408 15.0953 20.5835 15.9273 21.1403 16.8767C22.0868 18.4903 23.981 18.7439 23.981 19.8125V20.8814L6.6766 31.0121Z" fill="white"/>
<path d="M25.1964 23.4723L41.9794 33.2634C43.0202 33.9994 42.4564 35.3848 41.3288 35.3872H8.98689C7.93431 35.4281 7.28377 33.9561 8.32464 33.3067L25.1964 23.4723Z" fill="#6D7D09"/>
</svg>
