<svg width="51" height="51" viewBox="0 0 51 51" fill="none" xmlns="http://www.w3.org/2000/svg">
<path d="M4.80985 50.4408C2.73146 50.1677 1.37421 49.095 0.736723 47.2217L0.5 46.5259V25.6406C0.5 5.70467 0.507173 4.73008 0.657297 4.20291C1.17413 2.38765 2.3077 1.24236 4.12993 0.694344C4.62317 0.545951 5.65562 0.53708 25.2613 0.512965C48.1588 0.484802 46.597 0.447165 47.8764 1.05745C49.2238 1.70011 50.101 2.90811 50.4137 4.55129C50.4626 4.80846 50.4965 13.1532 50.4991 25.6223C50.5033 45.8648 50.5 46.2804 50.3337 46.9259C49.8647 48.7455 48.8475 49.7648 46.9669 50.2998L46.3062 50.4877L25.8231 50.4991C14.5573 50.5054 5.10137 50.4792 4.80985 50.4408ZM24.2391 46.2283C24.3685 46.2199 24.8447 45.7563 24.9835 45.5037C25.1184 45.2583 25.1355 44.6769 25.1749 39.0331L25.2181 32.832L26.0391 32.7795V38.6721C26.0391 42.2591 26.0731 44.7432 26.126 45.0209C26.287 45.8668 26.8486 46.3229 27.7295 46.3229C28.3656 46.3229 28.8609 46.0479 29.1495 45.5344L29.3666 45.1479L29.4183 32.8751H31.5315C33.5277 32.8751 33.6447 32.8663 33.6447 32.7163C33.6447 32.6289 32.6147 29.0162 31.3557 24.688C30.0835 20.3143 29.0997 16.7859 29.1408 16.7449C29.1816 16.7042 29.3433 16.6836 29.5002 16.6988C29.8411 16.7321 29.6437 16.1784 31.3497 21.8868C32.6608 26.2739 32.7609 26.526 33.2992 26.8034C33.6815 27.0004 34.3412 26.9694 34.6906 26.7379C35.1424 26.4388 35.3959 25.8768 35.341 25.2961C35.2879 24.7332 32.3515 15.0232 32.0462 14.4013C31.4307 13.1466 30.0888 12.1124 28.7586 11.8673C27.9724 11.7225 23.0225 11.7483 22.2995 11.901C21.0973 12.1548 19.8995 13.063 19.3144 14.1643C19.1291 14.5132 18.4654 16.5586 17.428 19.9778C15.7237 25.5955 15.7228 25.5997 16.0541 26.2382C16.3786 26.8635 17.3312 27.1253 17.9733 26.7656C18.1568 26.6629 18.3909 26.4549 18.4935 26.3035C18.5989 26.1478 19.2687 24.0444 20.0348 21.4635C20.78 18.953 21.4294 16.8504 21.4779 16.7912C21.5264 16.732 21.678 16.6836 21.8148 16.6836C21.9989 16.6836 22.0635 16.7249 22.0635 16.8424C22.0635 16.9297 21.0553 20.4856 19.823 24.7444C18.5907 29.0031 17.5698 32.565 17.5543 32.6598C17.5269 32.8272 17.5862 32.8332 19.6868 32.8751L21.8474 32.9182L21.8907 39.1192C21.9327 45.1605 21.9384 45.3279 22.1097 45.6186C22.4222 46.1485 23.133 46.4278 23.8353 46.2966C24.0254 46.2611 24.2071 46.2303 24.2391 46.2283ZM27.1016 10.5897C28.8658 9.76694 29.5967 7.65197 28.7171 5.91534C27.2087 2.93773 22.7439 3.66627 22.227 6.97433C21.9654 8.64861 22.9165 10.1594 24.612 10.7632C25.3048 11.01 26.3577 10.9366 27.1016 10.5897Z" fill="#82146A"/>
</svg>
