<svg width="50" height="50" viewBox="0 0 50 50" fill="none" xmlns="http://www.w3.org/2000/svg">
<path d="M0 5C0 2.23858 2.23858 0 5 0H45C47.7614 0 50 2.23858 50 5V45C50 47.7614 47.7614 50 45 50H5C2.23858 50 0 47.7614 0 45V5Z" fill="#AA8822"/>
<path d="M40.9655 17.5455C40.9655 16.2197 40.5733 15.0928 39.7888 14.1648C39.0043 13.2367 38.0517 12.7727 36.931 12.7727H35.5862V22.3182H36.931C38.0517 22.3182 39.0043 21.8542 39.7888 20.9261C40.5733 19.9981 40.9655 18.8712 40.9655 17.5455ZM6 36.6364H43.6552C43.6552 38.393 43.1298 39.8928 42.0792 41.1357C41.0286 42.3786 39.7608 43 38.2759 43H11.3793C9.8944 43 8.62662 42.3786 7.57597 41.1357C6.52532 39.8928 6 38.393 6 36.6364ZM45 17.5455C45 20.1804 44.212 22.43 42.636 24.2944C41.0601 26.1587 39.1584 27.0909 36.931 27.0909H35.5862V27.8864C35.5862 29.411 35.1239 30.7202 34.1994 31.8139C33.2748 32.9077 32.1681 33.4545 30.8793 33.4545H16.0862C14.7974 33.4545 13.6907 32.9077 12.7662 31.8139C11.8416 30.7202 11.3793 29.411 11.3793 27.8864V9.59091C11.3793 9.16004 11.5124 8.78717 11.7786 8.4723C12.0447 8.15743 12.3599 8 12.7241 8H36.931C39.1584 8 41.0601 8.93217 42.636 10.7965C44.212 12.6609 45 14.9105 45 17.5455Z" fill="white"/>
</svg>
