<svg width="51" height="51" viewBox="0 0 51 51" fill="none" xmlns="http://www.w3.org/2000/svg">
<path d="M0.5 5.5C0.5 2.73858 2.73858 0.5 5.5 0.5H45.5C48.2614 0.5 50.5 2.73858 50.5 5.5V45.5C50.5 48.2614 48.2614 50.5 45.5 50.5H5.5C2.73858 50.5 0.5 48.2614 0.5 45.5V5.5Z" fill="#1A8200"/>
<path d="M38.1667 36.3235C39.9163 36.3235 41.3175 34.9021 41.3175 33.1471L41.3333 15.6765C41.3333 13.9215 39.9163 12.5 38.1667 12.5H12.8333C11.0837 12.5 9.66667 13.9215 9.66667 15.6765V33.1471C9.66667 34.9021 11.0837 36.3235 12.8333 36.3235H6.5C6.5 38.0785 7.91708 39.5 9.66667 39.5H41.3333C43.0829 39.5 44.5 38.0785 44.5 36.3235H38.1667ZM12.8333 15.6765H38.1667V33.1471H12.8333V15.6765ZM25.5 37.9118C24.6292 37.9118 23.9167 37.1971 23.9167 36.3235C23.9167 35.45 24.6292 34.7353 25.5 34.7353C26.3708 34.7353 27.0833 35.45 27.0833 36.3235C27.0833 37.1971 26.3708 37.9118 25.5 37.9118Z" fill="white"/>
</svg>
