<svg width="51" height="51" viewBox="0 0 51 51" fill="none" xmlns="http://www.w3.org/2000/svg">
<path d="M6.10082 0.505465C2.51547 0.505465 0.5 2.35584 0.5 6.13678V45.1118C0.5 48.6483 2.31198 50.5 5.89447 50.5H45.1026C48.6852 50.5 50.5 48.7405 50.5 45.1118V6.13678C50.5 2.44815 48.6852 0.505465 44.9901 0.505465C44.9901 0.505465 6.08842 0.493169 6.10082 0.505465Z" fill="#825914"/>
<path d="M5.43068 36.831H12.3741V29.7764H19.2728V22.6739H26.2804V15.7037H33.2404V8.77892H43.5743V12.312H36.7044V19.263H29.7365V26.3121H22.7828V33.3242H15.8003V40.396H5.43068V36.831ZM28.5689 40.2587H34.7094C36.4008 40.2587 36.4659 37.661 34.7094 37.661H31.5619L37.548 31.6854C38.875 30.3608 36.998 28.4439 35.5883 29.8511L29.6913 35.7541V32.6442C29.7003 30.9558 27.0764 30.8908 27.0724 32.6442V38.7359C27.0724 39.6451 27.6836 40.2587 28.5689 40.2587Z" fill="white"/>
</svg>
