<svg width="51" height="51" viewBox="0 0 51 51" fill="none" xmlns="http://www.w3.org/2000/svg">
<path d="M6.10082 0.505465C2.51547 0.505465 0.5 2.35584 0.5 6.13678V45.1118C0.5 48.6483 2.31198 50.5 5.89447 50.5H45.1026C48.6852 50.5 50.5 48.7405 50.5 45.1118V6.13678C50.5 2.44815 48.6852 0.505465 44.9901 0.505465C44.9901 0.505465 6.08842 0.493169 6.10082 0.505465Z" fill="#825914"/>
<path d="M6.47155 36.2599H13.415V29.2051H20.3137V22.1028H27.3213V15.1325H34.2813V8.2077H44.6152V11.7408H37.7453V18.6919H30.7774V25.7408H23.8237V32.7531H16.8412V39.8248H6.47155V36.2599ZM37.5972 28.8059H31.4567C29.7653 28.8059 29.7003 31.4035 31.4567 31.4035H34.6042L28.6182 37.3791C27.2912 38.7039 29.168 40.6208 30.5779 39.2135L36.4748 33.3105V36.4204C36.4659 38.1089 39.0897 38.1738 39.0937 36.4204V30.3286C39.0937 29.4194 38.4826 28.8059 37.5972 28.8059Z" fill="white"/>
</svg>
