<svg width="50" height="50" viewBox="0 0 50 50" fill="none" xmlns="http://www.w3.org/2000/svg">
<rect width="50" height="50" rx="5" fill="#CF9634"/>
<g clip-path="url(#clip0_248_578)">
<path d="M25.0001 10.75L19.8701 18.3262H30.1314L25.0001 10.75Z" fill="white" stroke="white" stroke-width="0.5"/>
<path d="M31.4682 6H18.5318C17.5954 6.00111 16.6978 6.37601 16.0357 7.04245C15.3736 7.70889 15.0011 8.61246 15 9.55495V39.4451C15.0011 40.3875 15.3736 41.2911 16.0357 41.9576C16.6978 42.624 17.5954 42.9989 18.5318 43H31.4682C32.4046 42.9989 33.3022 42.624 33.9643 41.9576C34.6264 41.2911 34.9989 40.3875 35 39.4451V9.55495C34.9989 8.61246 34.6264 7.70889 33.9643 7.04245C33.3022 6.37601 32.4046 6.00111 31.4682 6ZM33.5005 39.4451C33.4998 39.9874 33.2854 40.5072 32.9044 40.8907C32.5235 41.2742 32.007 41.4899 31.4682 41.4907H18.5318C17.993 41.4899 17.4765 41.2742 17.0956 40.8907C16.7146 40.5072 16.5002 39.9874 16.4995 39.4451V9.55495C16.5002 9.01265 16.7146 8.49277 17.0956 8.10931C17.4765 7.72584 17.993 7.51009 18.5318 7.50935H31.4682C32.007 7.51009 32.5235 7.72584 32.9044 8.10931C33.2854 8.49277 33.4998 9.01265 33.5005 9.55495V39.4451Z" fill="white" stroke="white"/>
<path d="M25 28.5C25.7911 28.5 26.5645 28.2654 27.2223 27.8259C27.8801 27.3864 28.3928 26.7616 28.6955 26.0307C28.9983 25.2998 29.0775 24.4956 28.9231 23.7196C28.7688 22.9437 28.3878 22.231 27.8284 21.6716C27.269 21.1122 26.5563 20.7312 25.7804 20.5769C25.0044 20.4225 24.2002 20.5017 23.4693 20.8045C22.7384 21.1072 22.1136 21.6199 21.6741 22.2777C21.2346 22.9355 21 23.7089 21 24.5C21.0017 25.5604 21.4236 26.5768 22.1734 27.3266C22.9232 28.0764 23.9396 28.4983 25 28.5ZM25 21.8425C25.525 21.8425 26.0382 21.9982 26.4748 22.2898C26.9113 22.5814 27.2516 22.9959 27.4527 23.4809C27.6537 23.9659 27.7064 24.4996 27.6042 25.0145C27.5019 25.5295 27.2493 26.0026 26.8783 26.374C26.5072 26.7454 26.0344 26.9985 25.5195 27.1012C25.0046 27.2039 24.4709 27.1517 23.9857 26.9511C23.5005 26.7506 23.0857 26.4106 22.7937 25.9744C22.5016 25.5381 22.3455 25.025 22.345 24.5C22.346 23.7962 22.626 23.1214 23.1237 22.6237C23.6214 22.126 24.2962 21.846 25 21.845V21.8425ZM25 38.25L30.1312 30.6737H19.875L25 38.25ZM25 35.8462L22.4113 32.0213H27.59L25 35.8462Z" fill="white" stroke="white" stroke-width="0.5"/>
</g>
<defs>
<clipPath id="clip0_248_578">
<rect width="22" height="39" fill="white" transform="translate(14 5)"/>
</clipPath>
</defs>
</svg>
