<svg width="50" height="50" viewBox="0 0 50 50" fill="none" xmlns="http://www.w3.org/2000/svg">
<path d="M5.60082 0.00546465C2.01547 0.00546465 0 1.85584 0 5.63678V44.6118C0 48.1483 1.81198 50 5.39447 50H44.6026C48.1852 50 50 48.2405 50 44.6118V5.63678C50 1.94815 48.1852 0.00546465 44.4901 0.00546465C44.4901 0.00546465 5.58842 -0.00683081 5.60082 0.00546465Z" fill="#074683"/>
<path d="M25.0118 10.2443C26.9679 10.2443 28.5538 8.66114 28.5538 6.70842C28.5538 4.75578 26.9679 3.17269 25.0118 3.17269C23.0557 3.17269 21.4699 4.75578 21.4699 6.70842C21.4699 8.66114 23.0557 10.2443 25.0118 10.2443ZM21.2215 11.0247C18.7132 11.0247 16.6961 13.0668 16.6961 15.6139V26.4698C16.6961 28.5804 19.7903 28.5804 19.7903 26.4698V16.5432H20.5227V43.7237C20.5227 46.5455 24.6431 46.4625 24.6431 43.7237V27.9457H25.3528V43.7237C25.3528 46.4625 29.4959 46.5455 29.4959 43.7237V16.5432H30.2112V26.4698C30.2112 28.5966 33.2893 28.5966 33.2837 26.4698V15.6788C33.2837 13.3301 31.4566 11.0296 28.7027 11.0296L21.2215 11.0247Z" fill="white"/>
</svg>
