<svg width="50" height="50" viewBox="0 0 50 50" fill="none" xmlns="http://www.w3.org/2000/svg">
<rect width="50" height="50" rx="5" fill="#992929"/>
<path d="M37.82 19H35.62V9C35.62 8.73478 35.5147 8.48043 35.3272 8.29289C35.1396 8.10536 34.8853 8 34.62 8H15.42C15.1548 8 14.9005 8.10536 14.7129 8.29289C14.5254 8.48043 14.42 8.73478 14.42 9V19H12.2C11.0852 19.0026 10.017 19.4474 9.22959 20.2366C8.44222 21.0259 8.00004 22.0952 8.00005 23.21V31.21C7.99741 31.7632 8.10411 32.3115 8.314 32.8234C8.52389 33.3353 8.83284 33.8007 9.22311 34.1928C9.61337 34.5849 10.0773 34.8961 10.5881 35.1084C11.099 35.3207 11.6468 35.43 12.2 35.43H14.2V40.97C14.2 41.2352 14.3054 41.4896 14.4929 41.6771C14.6805 41.8646 14.9348 41.97 15.2 41.97H34.86C35.1253 41.97 35.3796 41.8646 35.5672 41.6771C35.7547 41.4896 35.86 41.2352 35.86 40.97V35.43H37.86C38.9731 35.4274 40.0399 34.984 40.827 34.1969C41.6141 33.4099 42.0574 32.3431 42.06 31.23V23.23C42.0627 22.6729 41.9548 22.1209 41.7425 21.6058C41.5303 21.0907 41.2179 20.6229 40.8235 20.2295C40.4291 19.836 39.9606 19.5247 39.445 19.3137C38.9294 19.1026 38.3771 18.996 37.82 19ZM16.42 10H33.62V19H16.42V10ZM33.86 40H16.2V28.4H33.86V40ZM40.02 31.26C40.0174 31.8427 39.7848 32.4007 39.3728 32.8127C38.9608 33.2247 38.4027 33.4574 37.82 33.46H35.82V27.46C35.82 27.1948 35.7147 26.9404 35.5272 26.7529C35.3396 26.5654 35.0853 26.46 34.82 26.46H15.2C14.9348 26.46 14.6805 26.5654 14.4929 26.7529C14.3054 26.9404 14.2 27.1948 14.2 27.46V33.46H12.2C11.6174 33.4574 11.0593 33.2247 10.6473 32.8127C10.2353 32.4007 10.0027 31.8427 10 31.26V23.26C9.9934 22.9664 10.0453 22.6745 10.1528 22.4012C10.2602 22.128 10.4211 21.8788 10.6259 21.6684C10.8307 21.458 11.0754 21.2905 11.3457 21.1758C11.616 21.061 11.9064 21.0013 12.2 21H37.8C38.3844 21.0026 38.944 21.2367 39.3563 21.6508C39.7686 22.065 40.0001 22.6256 40 23.21L40.02 31.26Z" fill="white"/>
<path d="M29.55 30.91H20.82C20.5548 30.91 20.3005 31.0154 20.1129 31.2029C19.9254 31.3904 19.82 31.6448 19.82 31.91C19.82 32.1752 19.9254 32.4296 20.1129 32.6171C20.3005 32.8046 20.5548 32.91 20.82 32.91H29.55C29.8153 32.91 30.0696 32.8046 30.2572 32.6171C30.4447 32.4296 30.55 32.1752 30.55 31.91C30.55 31.6448 30.4447 31.3904 30.2572 31.2029C30.0696 31.0154 29.8153 30.91 29.55 30.91ZM29.55 35.41H20.82C20.5548 35.41 20.3005 35.5154 20.1129 35.7029C19.9254 35.8904 19.82 36.1448 19.82 36.41C19.82 36.6752 19.9254 36.9296 20.1129 37.1171C20.3005 37.3046 20.5548 37.41 20.82 37.41H29.55C29.8153 37.41 30.0696 37.3046 30.2572 37.1171C30.4447 36.9296 30.55 36.6752 30.55 36.41C30.55 36.1448 30.4447 35.8904 30.2572 35.7029C30.0696 35.5154 29.8153 35.41 29.55 35.41ZM34.41 22.79H32.33C32.0648 22.79 31.8105 22.8954 31.6229 23.0829C31.4354 23.2704 31.33 23.5248 31.33 23.79C31.33 24.0552 31.4354 24.3096 31.6229 24.4971C31.8105 24.6846 32.0648 24.79 32.33 24.79H34.41C34.6753 24.79 34.9296 24.6846 35.1172 24.4971C35.3047 24.3096 35.41 24.0552 35.41 23.79C35.41 23.5248 35.3047 23.2704 35.1172 23.0829C34.9296 22.8954 34.6753 22.79 34.41 22.79Z" fill="white"/>
<path d="M37.82 19H35.62V9C35.62 8.73478 35.5147 8.48043 35.3272 8.29289C35.1396 8.10536 34.8853 8 34.62 8H15.42C15.1548 8 14.9005 8.10536 14.7129 8.29289C14.5254 8.48043 14.42 8.73478 14.42 9V19H12.2C11.0852 19.0026 10.017 19.4474 9.22959 20.2366C8.44222 21.0259 8.00004 22.0952 8.00005 23.21V31.21C7.99741 31.7632 8.10411 32.3115 8.314 32.8234C8.52389 33.3353 8.83284 33.8007 9.22311 34.1928C9.61337 34.5849 10.0773 34.8961 10.5881 35.1084C11.099 35.3207 11.6468 35.43 12.2 35.43H14.2V40.97C14.2 41.2352 14.3054 41.4896 14.4929 41.6771C14.6805 41.8646 14.9348 41.97 15.2 41.97H34.86C35.1253 41.97 35.3796 41.8646 35.5672 41.6771C35.7547 41.4896 35.86 41.2352 35.86 40.97V35.43H37.86C38.9731 35.4274 40.0399 34.984 40.827 34.1969C41.6141 33.4099 42.0574 32.3431 42.06 31.23V23.23C42.0627 22.6729 41.9548 22.1209 41.7425 21.6058C41.5303 21.0907 41.2179 20.6229 40.8235 20.2295C40.4291 19.836 39.9606 19.5247 39.445 19.3137C38.9294 19.1026 38.3771 18.996 37.82 19ZM16.42 10H33.62V19H16.42V10ZM33.86 40H16.2V28.4H33.86V40ZM40.02 31.26C40.0174 31.8427 39.7848 32.4007 39.3728 32.8127C38.9608 33.2247 38.4027 33.4574 37.82 33.46H35.82V27.46C35.82 27.1948 35.7147 26.9404 35.5272 26.7529C35.3396 26.5654 35.0853 26.46 34.82 26.46H15.2C14.9348 26.46 14.6805 26.5654 14.4929 26.7529C14.3054 26.9404 14.2 27.1948 14.2 27.46V33.46H12.2C11.6174 33.4574 11.0593 33.2247 10.6473 32.8127C10.2353 32.4007 10.0027 31.8427 10 31.26V23.26C9.9934 22.9664 10.0453 22.6745 10.1528 22.4012C10.2602 22.128 10.4211 21.8788 10.6259 21.6684C10.8307 21.458 11.0754 21.2905 11.3457 21.1758C11.616 21.061 11.9064 21.0013 12.2 21H37.8C38.3844 21.0026 38.944 21.2367 39.3563 21.6508C39.7686 22.065 40.0001 22.6256 40 23.21L40.02 31.26Z" stroke="white"/>
<path d="M29.55 30.91H20.82C20.5548 30.91 20.3005 31.0154 20.1129 31.2029C19.9254 31.3904 19.82 31.6448 19.82 31.91C19.82 32.1752 19.9254 32.4296 20.1129 32.6171C20.3005 32.8046 20.5548 32.91 20.82 32.91H29.55C29.8153 32.91 30.0696 32.8046 30.2572 32.6171C30.4447 32.4296 30.55 32.1752 30.55 31.91C30.55 31.6448 30.4447 31.3904 30.2572 31.2029C30.0696 31.0154 29.8153 30.91 29.55 30.91ZM29.55 35.41H20.82C20.5548 35.41 20.3005 35.5154 20.1129 35.7029C19.9254 35.8904 19.82 36.1448 19.82 36.41C19.82 36.6752 19.9254 36.9296 20.1129 37.1171C20.3005 37.3046 20.5548 37.41 20.82 37.41H29.55C29.8153 37.41 30.0696 37.3046 30.2572 37.1171C30.4447 36.9296 30.55 36.6752 30.55 36.41C30.55 36.1448 30.4447 35.8904 30.2572 35.7029C30.0696 35.5154 29.8153 35.41 29.55 35.41ZM34.41 22.79H32.33C32.0648 22.79 31.8105 22.8954 31.6229 23.0829C31.4354 23.2704 31.33 23.5248 31.33 23.79C31.33 24.0552 31.4354 24.3096 31.6229 24.4971C31.8105 24.6846 32.0648 24.79 32.33 24.79H34.41C34.6753 24.79 34.9296 24.6846 35.1172 24.4971C35.3047 24.3096 35.41 24.0552 35.41 23.79C35.41 23.5248 35.3047 23.2704 35.1172 23.0829C34.9296 22.8954 34.6753 22.79 34.41 22.79Z" stroke="white"/>
</svg>
