<svg width="51" height="51" viewBox="0 0 51 51" fill="none" xmlns="http://www.w3.org/2000/svg">
<path d="M0.5 5.5C0.5 2.73858 2.73858 0.5 5.5 0.5H45.5C48.2614 0.5 50.5 2.73858 50.5 5.5V45.5C50.5 48.2614 48.2614 50.5 45.5 50.5H5.5C2.73858 50.5 0.5 48.2614 0.5 45.5V5.5Z" fill="#A25700"/>
<path d="M37.5 13.3504C37.4936 12.2202 37.2902 11.1 36.899 10.041C36.5349 9.00515 35.8617 8.10858 34.972 7.47451C34.0824 6.84044 33.02 6.50001 31.9308 6.50001C30.8416 6.50001 29.7792 6.84044 28.8895 7.47451C27.9999 8.10858 27.3267 9.00515 26.9626 10.041C26.5714 11.1 26.3679 12.2202 26.3616 13.3504C26.3616 17.3695 27.769 18.2547 28.9542 19.565C29.8525 20.5583 30.6306 21.6726 30.6104 23.4474C30.545 29.1913 28.9327 35.4549 29.9088 42.1539C30.1676 43.9296 30.8849 44.5 31.9307 44.5C32.9766 44.5 33.694 43.9296 33.9527 42.1539C34.9288 35.4549 33.3165 29.1913 33.2511 23.4474C33.231 21.6726 34.009 20.5583 34.9074 19.565C36.0926 18.2547 37.5 17.3695 37.5 13.3504ZM22.8298 11.2682L22.4228 7.05763C22.4081 6.90494 22.3375 6.76326 22.2249 6.66018C22.1123 6.5571 21.9657 6.5 21.8137 6.5H21.7832C21.6209 6.5 21.4652 6.56506 21.3504 6.68088C21.2356 6.79669 21.1711 6.95377 21.1711 7.11757V14.7119C21.188 14.8819 21.1384 15.0518 21.0328 15.1854C20.9273 15.319 20.7742 15.4058 20.6062 15.4271C20.4382 15.4058 20.2851 15.319 20.1796 15.1854C20.074 15.0518 20.0244 14.8819 20.0413 14.7119V7.11757C20.0408 6.95406 19.9762 6.79741 19.8614 6.68194C19.7467 6.56648 19.5913 6.50164 19.4292 6.50164C19.2672 6.50164 19.1118 6.56648 18.997 6.68194C18.8823 6.79741 18.8176 6.95406 18.8172 7.11757V14.7119C18.8341 14.8819 18.7844 15.0518 18.6789 15.1854C18.5734 15.319 18.4203 15.4058 18.2523 15.4271C18.0843 15.4058 17.9312 15.319 17.8257 15.1854C17.7201 15.0518 17.6705 14.8819 17.6874 14.7119V7.11757C17.6869 6.95406 17.6223 6.79741 17.5075 6.68194C17.3928 6.56648 17.2374 6.50164 17.0753 6.50164C16.9133 6.50164 16.7579 6.56648 16.6431 6.68194C16.5284 6.79741 16.4637 6.95406 16.4633 7.11757V14.7119C16.4802 14.8819 16.4305 15.0518 16.325 15.1854C16.2195 15.319 16.0664 15.4058 15.8984 15.4271C15.7304 15.4058 15.5773 15.319 15.4717 15.1854C15.3662 15.0518 15.3166 14.8819 15.3334 14.7119V7.11757C15.3334 7.03647 15.3176 6.95616 15.2868 6.88124C15.2561 6.80631 15.211 6.73823 15.1542 6.68088C15.0973 6.62353 15.0299 6.57804 14.9556 6.54701C14.8814 6.51597 14.8018 6.5 14.7214 6.5H14.6908C14.5388 6.50001 14.3922 6.55711 14.2796 6.66019C14.167 6.76327 14.0965 6.90495 14.0817 7.05763L13.6748 11.2682C13.2504 15.6584 13.5406 17.4461 15.1929 19.132C15.739 19.6301 16.1733 20.2402 16.4669 20.9214C16.7605 21.6025 16.9065 22.3391 16.8952 23.0818C16.828 28.9254 15.1708 35.2978 16.1741 42.1131C16.4397 43.9169 17.1774 44.5 18.2523 44.5C19.3272 44.5 20.0645 43.9197 20.3305 42.1131C21.3337 35.2978 19.6766 28.9254 19.6094 23.0818C19.5981 22.3391 19.7441 21.6025 20.0377 20.9214C20.3313 20.2402 20.7656 19.6301 21.3117 19.132C22.964 17.4461 23.2542 15.6584 22.8298 11.2682Z" fill="white"/>
</svg>
