<svg width="50" height="50" viewBox="0 0 50 50" fill="none" xmlns="http://www.w3.org/2000/svg">
<path d="M0 5C0 2.23858 2.23858 0 5 0H45C47.7614 0 50 2.23858 50 5V45C50 47.7614 47.7614 50 45 50H5C2.23858 50 0 47.7614 0 45V5Z" fill="#CC3838"/>
<path d="M11 20C11 17.7909 12.7909 16 15 16H29C31.2091 16 33 17.7909 33 20V23C33 23.5523 32.5523 24 32 24C31.4477 24 31 23.5523 31 23V21C31 19.345 29.655 18 28 18C26.345 18 25 19.345 25 21V23C25 23.5523 24.5523 24 24 24C23.4477 24 23 23.5523 23 23V21C23 19.345 21.655 18 20 18C18.345 18 17 19.345 17 21V23C17 23.5523 16.5523 24 16 24C15.4477 24 15 23.5523 15 23V19C15 18.45 14.55 18 14 18C13.45 18 13 18.45 13 19V23C13 23.5523 12.5523 24 12 24C11.4477 24 11 23.5523 11 23V20ZM11 40C11 37.7909 12.7909 36 15 36H29C31.2091 36 33 37.7909 33 40C33 42.2091 31.2091 44 29 44H15C12.7909 44 11 42.2091 11 40ZM15 40C15 40.55 15.45 41 16 41H28C28.55 41 29 40.55 29 40C29 39.45 28.55 39 28 39H16C15.45 39 15 39.45 15 40ZM11 33C11 33.5523 11.4477 34 12 34C12.5523 34 13 33.5523 13 33V29C13 28.45 13.45 28 14 28C14.55 28 15 28.45 15 29V33C15 33.5523 15.4477 34 16 34C16.5523 34 17 33.5523 17 33V31C17 29.345 18.345 28 20 28C21.655 28 23 29.345 23 31V33C23 33.5523 23.4477 34 24 34C24.5523 34 25 33.5523 25 33V31C25 29.345 26.345 28 28 28C29.655 28 31 29.345 31 31V33C31 33.5523 31.4477 34 32 34C32.5523 34 33 33.5523 33 33V30C33 27.7909 31.2091 26 29 26H15C12.7909 26 11 27.7909 11 30V33ZM37 6C38.1046 6 39 6.89543 39 8V22C39 23.1046 38.1046 24 37 24C35.8954 24 35 23.1046 35 22V8C35 6.89543 35.8954 6 37 6ZM38 20.5C38 20.435 37.995 20.37 37.98 20.305C37.97 20.24 37.95 20.18 37.925 20.12C37.9 20.055 37.865 20 37.83 19.945C37.795 19.89 37.755 19.84 37.705 19.795C37.475 19.56 37.13 19.455 36.805 19.52C36.74 19.53 36.675 19.55 36.615 19.575C36.555 19.6 36.5 19.63 36.445 19.67C36.39 19.705 36.34 19.745 36.295 19.795C36.245 19.84 36.205 19.89 36.17 19.945C36.13 20 36.1 20.055 36.075 20.12C36.05 20.18 36.03 20.24 36.02 20.305C36.005 20.37 36 20.435 36 20.5C36 20.565 36.005 20.63 36.02 20.695C36.03 20.76 36.05 20.82 36.075 20.885C36.1 20.945 36.13 21 36.17 21.055C36.205 21.11 36.245 21.16 36.295 21.205C36.34 21.255 36.39 21.295 36.445 21.33C36.5 21.365 36.555 21.4 36.615 21.425C36.675 21.45 36.74 21.47 36.805 21.48C36.966 21.5131 37.1328 21.5052 37.29 21.4572C37.4473 21.4092 37.59 21.3224 37.705 21.205C37.895 21.02 38 20.765 38 20.5ZM11 13C11 13.5523 11.4477 14 12 14C12.5523 14 13 13.5523 13 13V9C13 8.45 13.45 8 14 8C14.55 8 15 8.45 15 9V13C15 13.5523 15.4477 14 16 14C16.5523 14 17 13.5523 17 13V11C17 9.345 18.345 8 20 8C21.655 8 23 9.345 23 11V13C23 13.5523 23.4477 14 24 14C24.5523 14 25 13.5523 25 13V11C25 9.345 26.345 8 28 8C29.655 8 31 9.345 31 11V13C31 13.5523 31.4477 14 32 14C32.5523 14 33 13.5523 33 13V10C33 7.79086 31.2091 6 29 6H15C12.7909 6 11 7.79086 11 10V13ZM35 27.5C35 28.3284 35.6716 29 36.5 29H37.5C38.3284 29 39 28.3284 39 27.5C39 26.6716 38.3284 26 37.5 26H36.5C35.6716 26 35 26.6716 35 27.5ZM35 42C35 43.1046 35.8954 44 37 44C38.1046 44 39 43.1046 39 42V33C39 31.8954 38.1046 31 37 31C35.8954 31 35 31.8954 35 33V42ZM20 30C19.45 30 19 30.45 19 31V33C19 33.5523 19.4477 34 20 34C20.5523 34 21 33.5523 21 33V31C21 30.45 20.55 30 20 30ZM28 30C27.45 30 27 30.45 27 31V33C27 33.5523 27.4477 34 28 34C28.5523 34 29 33.5523 29 33V31C29 30.45 28.55 30 28 30ZM20 20C19.45 20 19 20.45 19 21V23C19 23.5523 19.4477 24 20 24C20.5523 24 21 23.5523 21 23V21C21 20.45 20.55 20 20 20ZM28 20C27.45 20 27 20.45 27 21V23C27 23.5523 27.4477 24 28 24C28.5523 24 29 23.5523 29 23V21C29 20.45 28.55 20 28 20ZM20 10C19.45 10 19 10.45 19 11V13C19 13.5523 19.4477 14 20 14C20.5523 14 21 13.5523 21 13V11C21 10.45 20.55 10 20 10ZM28 10C27.45 10 27 10.45 27 11V13C27 13.5523 27.4477 14 28 14C28.5523 14 29 13.5523 29 13V11C29 10.45 28.55 10 28 10Z" fill="white"/>
</svg>
