<svg width="63" height="32" viewBox="0 0 63 32" fill="none" xmlns="http://www.w3.org/2000/svg">
<rect width="62.5" height="31.25" rx="3.125" fill="#E77011"/>
<path d="M15.6875 22.0141V9.23633M15.6875 9.23633L19.125 12.8127M15.6875 9.23633L12.25 12.8127" stroke="white" stroke-width="1.875" stroke-linecap="round" stroke-linejoin="round"/>
<path d="M30.2261 9.96094V11.814H25.5093V20.625H23.1289V9.96094H30.2261ZM34.8623 16.6846L37.4258 9.96094H39.9673L36.3418 18.4863C36.21 18.7891 36.0586 19.0796 35.8877 19.3579C35.7168 19.6313 35.5142 19.8755 35.2798 20.0903C35.0503 20.3003 34.7744 20.4688 34.4521 20.5957C34.1348 20.7178 33.7588 20.7788 33.3242 20.7788C33.2119 20.7788 33.0776 20.7764 32.9214 20.7715C32.77 20.7666 32.6431 20.7617 32.5405 20.7568L32.5112 18.9038C32.5747 18.9185 32.665 18.9282 32.7822 18.9331C32.9043 18.9331 32.9897 18.9331 33.0386 18.9331C33.3315 18.9331 33.561 18.894 33.7271 18.8159C33.8979 18.7378 34.0322 18.6255 34.1299 18.479C34.2324 18.3325 34.3228 18.1494 34.4009 17.9297L34.8623 16.6846ZM33.2729 9.96094L35.5874 14.9121L36.3418 17.6074L34.606 17.6221L30.7314 9.96094H33.2729ZM43.3657 9.96094V20.625H40.9854V9.96094H43.3657ZM49.584 9.96094L45.6216 16.311H42.897L42.604 14.1797H44.3765L46.6982 9.96094H49.584ZM47.1157 20.625L44.3765 15.9082L46.0684 14.2676L49.9429 20.625H47.1157Z" fill="white"/>
</svg>
