<svg width="100" height="50" viewBox="0 0 100 50" fill="none" xmlns="http://www.w3.org/2000/svg">
<rect width="100" height="50" rx="5" fill="#2B3D83"/>
<path d="M32.957 17.4258H36.9883C38.0117 17.4258 38.9531 17.5938 39.8125 17.9297C40.6797 18.2656 41.4336 18.7461 42.0742 19.3711C42.7148 19.9961 43.2109 20.7461 43.5625 21.6211C43.9141 22.4961 44.0898 23.4766 44.0898 24.5625C44.0898 25.6172 43.9141 26.5742 43.5625 27.4336C43.2109 28.2852 42.7148 29.0195 42.0742 29.6367C41.4336 30.2461 40.6797 30.7148 39.8125 31.043C38.9531 31.3633 38.0117 31.5234 36.9883 31.5234H32.957C31.9258 31.5234 30.9766 31.3633 30.1094 31.043C29.2422 30.7148 28.4844 30.2461 27.8359 29.6367C27.1953 29.0273 26.6992 28.2969 26.3477 27.4453C25.9961 26.5938 25.8203 25.6406 25.8203 24.5859C25.8203 23.5 25.9961 22.5195 26.3477 21.6445C26.6992 20.7695 27.1953 20.0156 27.8359 19.3828C28.4844 18.75 29.2422 18.2656 30.1094 17.9297C30.9766 17.5938 31.9258 17.4258 32.957 17.4258ZM32.957 20.4844C32.2695 20.4844 31.6562 20.6367 31.1172 20.9414C30.5859 21.2461 30.168 21.7031 29.8633 22.3125C29.5664 22.9141 29.418 23.6719 29.418 24.5859C29.418 25.2266 29.5039 25.793 29.6758 26.2852C29.8555 26.7695 30.1055 27.1719 30.4258 27.4922C30.7539 27.8125 31.1328 28.0547 31.5625 28.2188C31.9922 28.3828 32.457 28.4648 32.957 28.4648H37.0117C37.6914 28.4648 38.2891 28.3203 38.8047 28.0312C39.3281 27.7344 39.7383 27.293 40.0352 26.707C40.332 26.1211 40.4805 25.4062 40.4805 24.5625C40.4805 23.8828 40.3945 23.2891 40.2227 22.7812C40.0508 22.2734 39.8086 21.8516 39.4961 21.5156C39.1914 21.1719 38.8281 20.9141 38.4062 20.7422C37.9844 20.5703 37.5195 20.4844 37.0117 20.4844H32.957ZM36.8008 15.2344V33.7031H33.1445V15.2344H36.8008Z" fill="white"/>
<path d="M52.2782 25H72.7227M72.7227 25L67.0004 19.5M72.7227 25L67.0004 30.5" stroke="white" stroke-width="3" stroke-linecap="round" stroke-linejoin="round"/>
</svg>
