<svg width="14" height="14" viewBox="0 0 14 14" fill="none" xmlns="http://www.w3.org/2000/svg">
<path d="M13.125 6.5333H2.7475L5.92375 2.46396C6.07227 2.27336 6.14373 2.02763 6.12239 1.78084C6.10106 1.53404 5.98869 1.30639 5.81 1.14796C5.63131 0.989542 5.40094 0.913324 5.16957 0.936078C4.93819 0.958833 4.72477 1.0787 4.57625 1.2693L0.20125 6.8693C0.171816 6.91384 0.145494 6.96063 0.1225 7.0093C0.1225 7.05596 0.1225 7.08396 0.0612502 7.13063C0.0215894 7.23765 0.000823481 7.35156 0 7.46663C0.000823481 7.5817 0.0215894 7.69562 0.0612502 7.80263C0.0612502 7.8493 0.0612499 7.8773 0.1225 7.92396C0.145494 7.97263 0.171816 8.01942 0.20125 8.06396L4.57625 13.664C4.65852 13.7693 4.76154 13.854 4.87799 13.9121C4.99444 13.9702 5.12145 14.0002 5.25 14C5.45445 14.0004 5.65258 13.9244 5.81 13.7853C5.8986 13.7069 5.97184 13.6107 6.02552 13.5021C6.07921 13.3935 6.11228 13.2747 6.12284 13.1525C6.13341 13.0302 6.12126 12.907 6.0871 12.7897C6.05294 12.6725 5.99743 12.5636 5.92375 12.4693L2.7475 8.39996H13.125C13.3571 8.39996 13.5796 8.30163 13.7437 8.1266C13.9078 7.95156 14 7.71417 14 7.46663C14 7.2191 13.9078 6.9817 13.7437 6.80666C13.5796 6.63163 13.3571 6.5333 13.125 6.5333Z" fill="#6D6D6D"/>
</svg>
