<svg width="14" height="14" viewBox="0 0 14 14" fill="none" xmlns="http://www.w3.org/2000/svg">
<path d="M0.875 7.4667L11.2525 7.4667L8.07625 11.536C7.92773 11.7266 7.85627 11.9724 7.87761 12.2192C7.89894 12.466 8.01131 12.6936 8.19 12.852C8.36869 13.0105 8.59906 13.0867 8.83043 13.0639C9.06181 13.0412 9.27523 12.9213 9.42375 12.7307L13.7987 7.1307C13.8282 7.08616 13.8545 7.03937 13.8775 6.9907C13.8775 6.94404 13.8775 6.91604 13.9387 6.86937C13.9784 6.76235 13.9992 6.64844 14 6.53337C13.9992 6.4183 13.9784 6.30438 13.9387 6.19737C13.9387 6.1507 13.9388 6.1227 13.8775 6.07604C13.8545 6.02737 13.8282 5.98058 13.7987 5.93604L9.42375 0.336037C9.34148 0.23068 9.23846 0.145951 9.12201 0.0878782C9.00556 0.0298052 8.87855 -0.000185966 8.75 3.62396e-05C8.54555 -0.000389099 8.34742 0.0755606 8.19 0.214703C8.1014 0.293056 8.02816 0.389283 7.97448 0.497874C7.92079 0.606465 7.88772 0.725284 7.87716 0.847528C7.86659 0.969774 7.87874 1.09304 7.9129 1.21027C7.94706 1.3275 8.00257 1.43639 8.07625 1.5307L11.2525 5.60004L0.875 5.60004C0.642936 5.60004 0.420375 5.69837 0.256281 5.8734C0.0921869 6.04844 0 6.28583 0 6.53337C0 6.7809 0.0921869 7.0183 0.256281 7.19334C0.420375 7.36837 0.642936 7.4667 0.875 7.4667Z" fill="#6D6D6D"/>
</svg>
