<svg width="64" height="64" viewBox="0 0 64 64" fill="none" xmlns="http://www.w3.org/2000/svg">
<path d="M26.043 41.2C24.9384 41.2 24.043 42.0954 24.043 43.2V43.4C24.043 44.5046 24.9384 45.4 26.043 45.4H30.7957C31.9003 45.4 32.7957 44.5046 32.7957 43.4V43.2C32.7957 42.0954 31.9003 41.2 30.7957 41.2H26.043Z" fill="#68A357"/>
<path d="M35.8871 49.2H28.1129M35.8871 49.2H40.957M35.8871 49.2L37.2784 51.1583C37.6535 51.6863 38.2611 52 38.9088 52H38.957C40.0616 52 40.957 51.1046 40.957 50V49.2M40.957 49.2H41.9355C43.0401 49.2 43.9355 48.3046 43.9355 47.2V14C43.9355 12.8954 43.0401 12 41.9355 12H22.0645C20.9599 12 20.0645 12.8954 20.0645 14V47.2C20.0645 48.3046 20.9599 49.2 22.0645 49.2H23.043M23.043 49.2H28.1129M23.043 49.2V50C23.043 51.1046 23.9384 52 25.043 52H25.0912C25.7389 52 26.3465 51.6863 26.7216 51.1583L28.1129 49.2M32.7957 26.6V31.9M32.7957 26.6V21.3M32.7957 26.6H24.043M32.7957 31.9V35.2C32.7957 36.3046 31.9003 37.2 30.7957 37.2H26.043C24.9384 37.2 24.043 36.3046 24.043 35.2V31.9M32.7957 31.9H24.043M32.7957 21.3V18C32.7957 16.8954 31.9003 16 30.7957 16H26.043C24.9384 16 24.043 16.8954 24.043 18V21.3M32.7957 21.3H24.043M24.043 21.3V26.6M24.043 31.9V26.6M36.7742 26.6H39.957M38.3656 37.2V37.2C39.2445 37.2 39.957 36.4875 39.957 35.6086V32.7914C39.957 31.9125 39.2445 31.2 38.3656 31.2V31.2C37.4867 31.2 36.7742 31.9125 36.7742 32.7914V35.6086C36.7742 36.4875 37.4867 37.2 38.3656 37.2ZM38.3656 16V16C39.2445 16 39.957 16.7125 39.957 17.5914V20.4086C39.957 21.2875 39.2445 22 38.3656 22V22C37.4867 22 36.7742 21.2875 36.7742 20.4086V17.5914C36.7742 16.7125 37.4867 16 38.3656 16ZM32.7957 43.2V43.4C32.7957 44.5046 31.9003 45.4 30.7957 45.4H26.043C24.9384 45.4 24.043 44.5046 24.043 43.4V43.2C24.043 42.0954 24.9384 41.2 26.043 41.2H30.7957C31.9003 41.2 32.7957 42.0954 32.7957 43.2Z" stroke="#68A357" stroke-width="1.5" stroke-linecap="round"/>
<rect x="0.75" y="0.75" width="62.5" height="62.5" rx="31.25" stroke="#68A357" stroke-width="1.5"/>
</svg>
