<svg width="64" height="64" viewBox="0 0 64 64" fill="none" xmlns="http://www.w3.org/2000/svg">
<path d="M32.3958 52L28.3968 51.9834C28.2867 51.983 28.1976 51.8936 28.1976 51.7834V41.5698C28.1976 41.4594 28.1081 41.3698 27.9976 41.3698H24.8605C24.7288 41.3698 24.633 41.2448 24.6674 41.1177L29.0046 25.0726M32.3958 52L36.4108 51.9834C36.5209 51.983 36.61 51.8936 36.61 51.7834V41.5698C36.61 41.4594 36.6995 41.3698 36.81 41.3698H39.8297C39.9601 41.3698 40.0556 41.2471 40.0236 41.1207L38.6224 35.5897M32.3958 52V41.3698M35.9581 25.0726L38.6224 35.5897M26.2676 35.1899H23.2637C23.1313 35.1899 23.0354 35.0635 23.0712 34.936L25.8348 25.0726C26.4868 22.6823 26.8318 21.5958 29.0046 21.5958H35.9581C38.1311 21.5958 38.4771 22.6823 39.129 25.0726L41.7288 35.3407C41.7608 35.467 41.6652 35.5897 41.5349 35.5897H38.6224" stroke="#BD4AA4" stroke-width="1.5"/>
<path d="M35.844 15.9983C35.844 17.7922 34.3897 19.2465 32.5958 19.2465C30.8018 19.2465 29.3475 17.7922 29.3475 15.9983C29.3475 14.2043 30.8018 12.75 32.5958 12.75C34.3897 12.75 35.844 14.2043 35.844 15.9983Z" stroke="#BD4AA4" stroke-width="1.5"/>
<rect x="0.75" y="0.75" width="62.5" height="62.5" rx="31.25" stroke="#BD4AA4" stroke-width="1.5"/>
</svg>
